<?xml version="1.0" encoding="utf-8"?>
<!-- Generator: Adobe Illustrator 27.2.0, SVG Export Plug-In . SVG Version: 6.00 Build 0)  -->
<svg version="1.1" id="图层_1" xmlns="http://www.w3.org/2000/svg" xmlns:xlink="http://www.w3.org/1999/xlink" x="0px" y="0px"
	 viewBox="0 0 256 256" style="enable-background:new 0 0 256 256;" xml:space="preserve">
<style type="text/css">
	.st0{fill:#FFFFFF;}
</style>
<g>
	<path class="st0" d="M195,256H61c-33.69,0-61-27.31-61-61V61C0,27.31,27.31,0,61,0h134c33.69,0,61,27.31,61,61v134
		C256,228.69,228.69,256,195,256z"/>
</g>
<g>
	<path d="M51.95,192.72c0.77-4.44,3.69-6.51,6.48-9.38c7.82-7.7,15.42-15.62,23.03-23.55c15.18-15.87,30.07-32.05,46.11-47.03
		c11.95-11.15,24.52-21.64,37.54-31.5c6.52-5.38,16.32-0.71,23.93,4.07c0,0,0.62,0.79,0.62,0.79c2.82,8.5,5,19.18-1.78,24.2
		c-12.7,10.28-25.88,19.98-39.57,28.91c-18.38,11.99-37.65,22.57-56.7,33.52c-6.33,3.68-12.72,7.29-18.99,11.06
		c-4.75,2.76-9.34,5.73-14.11,8.47c-1.67,0.81-3.52,1.39-5.95,1.24L51.95,192.72L51.95,192.72z"/>
</g>
<g>
	<path d="M47.99,156.58c-1.56-3.57-0.1-5.64,1.16-8.56c0,0,3.24-7.39,3.24-7.39c10.7-24.64,20.39-49.85,33.12-73.52
		c3.44-6.46,7.12-12.94,10.83-19.25c2.27-4.07,7.61-4.04,11.87-3.69c0.76,0.03,1.97,0.28,2.75,0.4c0,0,0.87,0.49,0.87,0.49
		c1.1,1.26,2.24,2.64,3.07,4.03c1.7,2.67,2.91,5.29,2.45,8.29c-0.17,1.18-1.19,2.6-1.7,3.65c-15.55,29.84-35.95,56.69-55.46,84.01
		c0,0-4.63,6.61-4.63,6.61c-1.84,2.58-2.86,4.92-6.72,5.44C48.86,157.07,47.99,156.58,47.99,156.58L47.99,156.58z"/>
</g>
<g>
	<path d="M75.94,202.76c1.76-3.45,4.25-3.62,7.29-4.49c0,0,7.69-2.13,7.69-2.13c25.57-7.18,50.95-15.51,77.05-20.5
		c7.1-1.39,14.37-2.6,21.52-3.69c4.56-0.8,7.86,3.4,10.25,6.9c0.45,0.61,1.02,1.7,1.42,2.39c0,0,0.17,0.99,0.17,0.99
		c-0.28,1.64-0.62,3.39-1.17,4.92c-0.98,3-2.22,5.58-4.82,7.12c-1.01,0.61-2.74,0.71-3.86,0.98c-32.59,6.68-65.92,7.72-99.05,9.73
		c0,0-7.96,0.55-7.96,0.55c-3.14,0.19-5.56,0.86-8.37-1.8C76.11,203.75,75.94,202.76,75.94,202.76L75.94,202.76z"/>
</g>
</svg>
