<?xml version="1.0" encoding="utf-8"?>
<!-- Generator: Adobe Illustrator 27.2.0, SVG Export Plug-In . SVG Version: 6.00 Build 0)  -->
<svg version="1.1" id="图层_1" xmlns="http://www.w3.org/2000/svg" xmlns:xlink="http://www.w3.org/1999/xlink" x="0px" y="0px"
	 viewBox="0 0 256 256" style="enable-background:new 0 0 256 256;" xml:space="preserve">
<style type="text/css">
	.st0{fill:#FFFFFF;}
</style>
<g>
	<path class="st0" d="M195,256H61c-33.69,0-61-27.31-61-61V61C0,27.31,27.31,0,61,0h134c33.69,0,61,27.31,61,61v134
		C256,228.69,228.69,256,195,256z"/>
</g>
<g>
	<path d="M51.35,191.95c19.88-21.2,40.89-42.04,62.17-61.83c10.61-9.9,19.64-21.86,32.45-29.17c12.98-7.74,27.18-14.2,42.46-16.39
		c0,0,1.82,2.32,1.82,2.32c-1.5,3.97-3.37,7.46-5.32,10.86c-9.65,15.87-22.01,30.25-37.99,39.75c-6.29,3.73-12.79,7.2-18.86,11.22
		c-11.45,7.54-25.27,16.27-37,23.36c-12.54,7.52-25.05,15.09-37.91,22.2C53.17,194.28,51.35,191.95,51.35,191.95L51.35,191.95z"/>
</g>
<g>
	<path d="M47.42,156.25c5.53-15.3,11.6-30.27,17.89-45.23c4.32-9.9,8.81-19.66,12.45-29.86c3.95-10.25,10.74-18.73,18.62-26.39
		c4.09-3.85,8.47-7.52,14.02-10.55c0,0,2.03,1.14,2.03,1.14c0.3,6.31-0.56,11.97-1.72,17.46c-1.86,8.11-4.4,15.76-8.4,22.92
		c-4.02,7.01-9.78,12.95-14.27,19.62c-12.24,17.81-25.06,35.12-38.58,52.03C49.44,157.39,47.42,156.25,47.42,156.25L47.42,156.25z"
		/>
</g>
<g>
	<path d="M75.83,202.11c15.18-5.33,30.45-10.02,45.85-14.54c10.29-2.87,20.58-5.52,30.67-9.1c10.33-3.38,21.07-3.43,31.86-2.13
		c5.5,0.76,11.06,1.85,16.85,4.26c0,0,0.39,2.29,0.39,2.29c-4.65,4.21-9.52,7.09-14.46,9.64c-7.38,3.66-14.83,6.49-22.82,7.88
		c-7.89,1.28-16.04,0.55-23.96,1.26c-21.3,1.69-42.59,2.61-63.99,2.73C76.22,204.4,75.83,202.11,75.83,202.11L75.83,202.11z"/>
</g>
</svg>
